<svg version="1.2" xmlns="http://www.w3.org/2000/svg" viewBox="0 0 20 11" width="20" height="11"><style></style><path fill-rule="evenodd" d="m0.3 0.4c-0.4 0.4-0.4 1 0 1.4l8.3 8.6q0.2 0.3 0.6 0.4 0.4 0.2 0.8 0.2 0.4 0 0.7-0.2 0.4-0.1 0.7-0.4l8.3-8.6q0.1-0.2 0.2-0.4 0.1-0.2 0.1-0.4 0-0.2-0.1-0.3 0-0.2-0.2-0.4-0.1-0.1-0.3-0.2-0.2-0.1-0.4-0.1-0.2 0-0.4 0.1-0.2 0.1-0.3 0.2l-7.6 7.9q-0.2 0.1-0.3 0.2-0.2 0.1-0.4 0.1-0.2 0-0.4-0.1-0.2-0.1-0.3-0.2l-7.6-7.8q-0.1-0.2-0.3-0.3-0.2 0-0.4 0-0.2 0-0.4 0-0.2 0.1-0.3 0.3z"/></svg>